<?xml version="1.0" encoding="UTF-8"?>
<svg width="100" height="100" viewBox="0 0 100 100" fill="none" xmlns="http://www.w3.org/2000/svg">
  <!-- Center dot -->
  <circle cx="50" cy="50" r="4" fill="#9CA3AF"/>
  
  <!-- Inner ring of 12 dots -->
  <circle cx="68" cy="50" r="3" fill="#9CA3AF"/>
  <circle cx="64.6" cy="59.8" r="3" fill="#9CA3AF"/>
  <circle cx="57.5" cy="67.5" r="3" fill="#9CA3AF"/>
  <circle cx="50" cy="68" r="3" fill="#9CA3AF"/>
  <circle cx="42.5" cy="67.5" r="3" fill="#9CA3AF"/>
  <circle cx="35.4" cy="59.8" r="3" fill="#9CA3AF"/>
  <circle cx="32" cy="50" r="3" fill="#9CA3AF"/>
  <circle cx="35.4" cy="40.2" r="3" fill="#9CA3AF"/>
  <circle cx="42.5" cy="32.5" r="3" fill="#9CA3AF"/>
  <circle cx="50" cy="32" r="3" fill="#9CA3AF"/>
  <circle cx="57.5" cy="32.5" r="3" fill="#9CA3AF"/>
  <circle cx="64.6" cy="40.2" r="3" fill="#9CA3AF"/>
  
  <!-- Middle ring of 16 dots -->
  <circle cx="82" cy="50" r="2.5" fill="#9CA3AF"/>
  <circle cx="77.1" cy="63.9" r="2.5" fill="#9CA3AF"/>
  <circle cx="66.9" cy="74.1" r="2.5" fill="#9CA3AF"/>
  <circle cx="53" cy="79" r="2.5" fill="#9CA3AF"/>
  <circle cx="50" cy="82" r="2.5" fill="#9CA3AF"/>
  <circle cx="37" cy="79" r="2.5" fill="#9CA3AF"/>
  <circle cx="33.1" cy="74.1" r="2.5" fill="#9CA3AF"/>
  <circle cx="22.9" cy="63.9" r="2.5" fill="#9CA3AF"/>
  <circle cx="18" cy="50" r="2.5" fill="#9CA3AF"/>
  <circle cx="22.9" cy="36.1" r="2.5" fill="#9CA3AF"/>
  <circle cx="33.1" cy="25.9" r="2.5" fill="#9CA3AF"/>
  <circle cx="37" cy="21" r="2.5" fill="#9CA3AF"/>
  <circle cx="50" cy="18" r="2.5" fill="#9CA3AF"/>
  <circle cx="63" cy="21" r="2.5" fill="#9CA3AF"/>
  <circle cx="66.9" cy="25.9" r="2.5" fill="#9CA3AF"/>
  <circle cx="77.1" cy="36.1" r="2.5" fill="#9CA3AF"/>
  
  <!-- Outer ring of 24 dots -->
  <circle cx="96" cy="50" r="2" fill="#9CA3AF"/>
  <circle cx="92.8" cy="67.3" r="2" fill="#9CA3AF"/>
  <circle cx="83.7" cy="82.3" r="2" fill="#9CA3AF"/>
  <circle cx="69.7" cy="92.8" r="2" fill="#9CA3AF"/>
  <circle cx="52.4" cy="96" r="2" fill="#9CA3AF"/>
  <circle cx="50" cy="96" r="2" fill="#9CA3AF"/>
  <circle cx="47.6" cy="96" r="2" fill="#9CA3AF"/>
  <circle cx="30.3" cy="92.8" r="2" fill="#9CA3AF"/>
  <circle cx="16.3" cy="82.3" r="2" fill="#9CA3AF"/>
  <circle cx="7.2" cy="67.3" r="2" fill="#9CA3AF"/>
  <circle cx="4" cy="50" r="2" fill="#9CA3AF"/>
  <circle cx="7.2" cy="32.7" r="2" fill="#9CA3AF"/>
  <circle cx="16.3" cy="17.7" r="2" fill="#9CA3AF"/>
  <circle cx="30.3" cy="7.2" r="2" fill="#9CA3AF"/>
  <circle cx="47.6" cy="4" r="2" fill="#9CA3AF"/>
  <circle cx="50" cy="4" r="2" fill="#9CA3AF"/>
  <circle cx="52.4" cy="4" r="2" fill="#9CA3AF"/>
  <circle cx="69.7" cy="7.2" r="2" fill="#9CA3AF"/>
  <circle cx="83.7" cy="17.7" r="2" fill="#9CA3AF"/>
  <circle cx="92.8" cy="32.7" r="2" fill="#9CA3AF"/>
</svg> 